<svg width="37" height="37" viewBox="0 0 37 37" fill="none" xmlns="http://www.w3.org/2000/svg">
<path d="M15.4166 27.75C18.1531 27.7494 20.8106 26.8334 22.9662 25.1477L29.7434 31.9248L31.9233 29.7449L25.1461 22.9677C26.8327 20.812 27.7493 18.1538 27.75 15.4167C27.75 8.61637 22.2169 3.08333 15.4166 3.08333C8.61635 3.08333 3.08331 8.61637 3.08331 15.4167C3.08331 22.217 8.61635 27.75 15.4166 27.75ZM15.4166 6.16666C20.518 6.16666 24.6666 10.3153 24.6666 15.4167C24.6666 20.518 20.518 24.6667 15.4166 24.6667C10.3153 24.6667 6.16665 20.518 6.16665 15.4167C6.16665 10.3153 10.3153 6.16666 15.4166 6.16666Z" fill="white" fill-opacity="0.65"/>
<path d="M17.5935 13.2367C18.1778 13.8226 18.5 14.5965 18.5 15.4167H21.5834C21.5847 14.6064 21.4255 13.8039 21.1148 13.0556C20.8041 12.3072 20.3482 11.6279 19.7734 11.0568C17.4394 8.72583 13.3925 8.72583 11.0599 11.0568L13.2368 13.2398C14.4084 12.0712 16.428 12.0743 17.5935 13.2367Z" fill="white" fill-opacity="0.65"/>
</svg>
