<svg width="486" height="350" viewBox="0 0 486 350" fill="none" xmlns="http://www.w3.org/2000/svg">
<path d="M261.524 337.076C261.419 341.006 260.76 344.902 259.568 348.648C259.541 348.735 259.512 348.821 259.483 348.908H252.184C252.192 348.83 252.2 348.743 252.208 348.648C252.694 343.054 249.914 309.411 246.559 303.588C246.853 304.06 262.09 319.3 261.524 337.076Z" fill="#F1F1F1"/>
<path d="M260.976 348.648C260.915 348.735 260.852 348.822 260.787 348.908H255.311C255.352 348.834 255.4 348.747 255.456 348.648C256.361 347.016 259.038 342.135 261.523 337.076C264.193 331.638 266.644 325.995 266.438 323.952C266.502 324.413 268.35 338.456 260.976 348.648Z" fill="#F1F1F1"/>
<path d="M456.574 341.067C456.505 343.672 456.068 346.253 455.278 348.736C455.261 348.794 455.241 348.85 455.222 348.908H450.386C450.391 348.856 450.396 348.799 450.401 348.736C450.723 345.029 448.881 322.735 446.658 318.877C446.853 319.19 456.949 329.288 456.574 341.067Z" fill="#F1F1F1"/>
<path d="M456.211 348.736C456.171 348.794 456.129 348.851 456.086 348.908H452.457C452.485 348.859 452.517 348.801 452.554 348.736C453.153 347.654 454.927 344.42 456.574 341.067C458.343 337.464 459.967 333.724 459.831 332.371C459.873 332.676 461.098 341.982 456.211 348.736Z" fill="#F1F1F1"/>
<path d="M223.404 341.067C223.334 343.672 222.897 346.253 222.107 348.736C222.09 348.794 222.07 348.85 222.051 348.908H217.215C217.22 348.856 217.225 348.799 217.23 348.736C217.553 345.029 215.71 322.735 213.487 318.877C213.682 319.19 223.779 329.288 223.404 341.067Z" fill="#F1F1F1"/>
<path d="M223.041 348.736C223 348.794 222.958 348.851 222.915 348.908H219.286C219.314 348.859 219.346 348.801 219.383 348.736C219.982 347.654 221.756 344.42 223.403 341.067C225.172 337.464 226.797 333.724 226.66 332.371C226.702 332.676 227.927 341.982 223.041 348.736Z" fill="#F1F1F1"/>
<path d="M119.301 0L65.1037 89.2516L221.767 184.369L275.964 95.1169L119.301 0Z" fill="white"/>
<path d="M119.301 0L65.1037 89.2516L221.767 184.369L275.964 95.1169L119.301 0ZM220.75 180.207L69.2654 88.2345L120.318 4.16143L271.803 96.134L220.75 180.207Z" fill="#E5E5E5"/>
<path d="M102.723 30.2178L101.151 32.8071L254.794 126.09L256.366 123.501L102.723 30.2178Z" fill="#E5E5E5"/>
<path d="M81.165 65.7203L79.5927 68.3096L233.235 161.592L234.807 159.003L81.165 65.7203Z" fill="#E5E5E5"/>
<path d="M162.028 25.941L107.83 115.193L110.419 116.765L164.617 27.5132L162.028 25.941Z" fill="#E5E5E5"/>
<path d="M248.775 78.6091L194.577 167.861L191.88 166.466L246.185 77.0366L248.775 78.6091Z" fill="#E5E5E5"/>
<path d="M195.785 168.594L194.577 167.861L191.88 166.466L191.781 166.163L190.306 161.723L179.4 128.906L177.925 124.467L159.173 68.0338L157.698 63.5946L152.398 47.636L151.144 43.863L142.407 17.5721L140.932 13.1329L144.937 15.5644L146.412 20.0035L153.21 40.4624L154.462 44.2354L161.704 66.0266L163.178 70.4658L181.93 126.899L183.405 131.338L193.948 163.061L194.311 164.155L195.201 166.834L195.785 168.594Z" fill="#E5E5E5"/>
<path d="M189.733 139.181H188.223V97.8255C188.223 94.6823 187.604 91.5698 186.401 88.6658C185.198 85.7618 183.434 83.1231 181.212 80.9005C178.989 78.6779 176.35 76.9148 173.446 75.7119C170.541 74.509 167.429 73.8899 164.285 73.8899H76.66C73.5165 73.8899 70.4037 74.509 67.4995 75.7119C64.5952 76.9148 61.9564 78.6778 59.7336 80.9005C57.5107 83.1231 55.7475 85.7617 54.5445 88.6657C53.3415 91.5697 52.7224 94.6822 52.7224 97.8255V324.707C52.7224 327.85 53.3415 330.962 54.5445 333.866C55.7475 336.77 57.5107 339.409 59.7335 341.632C61.9563 343.854 64.5952 345.617 67.4994 346.82C70.4037 348.023 73.5164 348.642 76.6599 348.642H164.285C170.634 348.642 176.722 346.12 181.212 341.632C185.701 337.143 188.223 331.055 188.223 324.707V168.619H189.733V139.181Z" fill="#3F3D56"/>
<path d="M165.251 80.1172H153.813C154.339 81.4066 154.54 82.8057 154.398 84.191C154.256 85.5764 153.775 86.9055 152.998 88.0614C152.221 89.2172 151.172 90.1643 149.943 90.8192C148.714 91.4741 147.342 91.8167 145.95 91.8168H95.7503C94.3576 91.8167 92.9862 91.4741 91.7571 90.8192C90.528 90.1643 89.4788 89.2172 88.7019 88.0614C87.9251 86.9055 87.4444 85.5764 87.3023 84.191C87.1602 82.8057 87.361 81.4066 87.887 80.1172H77.2038C72.4627 80.1172 67.9158 82.0004 64.5634 85.3526C61.2109 88.7047 59.3275 93.2513 59.3275 97.992V324.54C59.3275 326.888 59.7899 329.212 60.6882 331.381C61.5866 333.549 62.9034 335.52 64.5633 337.18C66.2233 338.839 68.194 340.156 70.3628 341.054C72.5317 341.953 74.8563 342.415 77.2038 342.415H165.251C167.599 342.415 169.923 341.953 172.092 341.054C174.261 340.156 176.232 338.839 177.892 337.18C179.551 335.52 180.868 333.549 181.767 331.381C182.665 329.212 183.127 326.888 183.127 324.54V97.992C183.127 95.6446 182.665 93.3202 181.767 91.1516C180.868 88.9829 179.551 87.0124 177.892 85.3526C176.232 83.6927 174.261 82.3761 172.092 81.4778C169.923 80.5795 167.599 80.1172 165.251 80.1172Z" fill="white"/>
<path d="M140.091 143.585H102.363V152.688H140.091V143.585Z" fill="#55FF99"/>
<path d="M141.888 182.701H100.567V191.805H141.888V182.701Z" fill="#E5E5E5"/>
<path d="M167.339 202.256H75.1161V211.36H167.339V202.256Z" fill="#E5E5E5"/>
<path d="M167.339 221.811H75.1161V230.915H167.339V221.811Z" fill="#E5E5E5"/>
<path d="M140.091 265.154H102.363V278.947H140.091V265.154Z" fill="#55FF99"/>
<path d="M204.063 74.8346C206.369 74.8346 208.238 72.9656 208.238 70.66C208.238 68.3545 206.369 66.4855 204.063 66.4855C201.757 66.4855 199.888 68.3545 199.888 70.66C199.888 72.9656 201.757 74.8346 204.063 74.8346Z" fill="#55FF99"/>
<path d="M308.839 244.718C309.495 244.375 310.069 243.892 310.518 243.304C310.968 242.716 311.284 242.036 311.442 241.313C311.601 240.59 311.599 239.841 311.437 239.118C311.275 238.396 310.956 237.717 310.503 237.131L316.254 227.086L311.001 222.103L303.08 236.403C302.145 237.229 301.547 238.368 301.397 239.606C301.247 240.844 301.556 242.093 302.266 243.118C302.976 244.143 304.037 244.872 305.248 245.167C306.46 245.462 307.737 245.302 308.839 244.718Z" fill="#FFB7B7"/>
<path d="M341.167 342.103H333.87L330.398 313.96L341.168 313.96L341.167 342.103Z" fill="#FFB7B7"/>
<path d="M343.028 349.176L319.499 349.176V348.878C319.499 346.449 320.464 344.12 322.181 342.403C323.899 340.686 326.228 339.721 328.657 339.721H328.658L343.028 339.721L343.028 349.176Z" fill="#2F2E41"/>
<path d="M402.788 332.724L396.353 336.164L380.02 312.982L389.518 307.905L402.788 332.724Z" fill="#FFB7B7"/>
<path d="M407.764 338.084L387.015 349.176L386.874 348.914C385.729 346.772 385.482 344.263 386.187 341.939C386.891 339.615 388.491 337.666 390.632 336.521L390.633 336.521L403.306 329.746L407.764 338.084Z" fill="#2F2E41"/>
<path d="M368.367 231.2L370.001 264.924C370.001 264.924 373.771 266.339 372.452 271.808C372.452 271.808 370.602 278.11 374.786 278.11C378.97 278.11 395.344 317.046 395.344 317.046L384.643 322.467L356.536 281.665L348.546 254.416L344.266 285.375L343.981 333.167L329.998 331.598L326.003 276.387L324.149 234.301L368.367 231.2Z" fill="#2F2E41"/>
<path d="M319.703 242.052L323.148 217.054L335.085 158.617L357.77 159.901L368.601 180.788L366.719 221.532L371.052 237.618L319.703 242.052Z" fill="#3F3D56"/>
<path d="M328.45 206.527L314.825 232.462L312.691 237.551L306.453 230.164L315.004 199.952C315.004 199.952 322.741 162.492 335.041 158.68L338.016 159.165L328.45 206.527Z" fill="#3F3D56"/>
<path d="M360.929 237.283C361.63 237.044 362.269 236.654 362.803 236.141C363.337 235.627 363.752 235.003 364.018 234.312C364.285 233.622 364.397 232.881 364.346 232.142C364.295 231.403 364.083 230.685 363.725 230.037L370.932 220.979L366.495 215.257L356.497 228.191C355.448 228.866 354.684 229.901 354.348 231.102C354.012 232.303 354.128 233.585 354.674 234.705C355.221 235.826 356.159 236.707 357.312 237.182C358.464 237.658 359.751 237.693 360.929 237.283Z" fill="#FFB7B7"/>
<path d="M353.542 163.604L357.563 159.747C357.563 159.747 362.288 161.504 365.689 170.58C369.091 179.656 380.16 204.229 380.16 204.229L369.325 226.225L362.02 221.382L365.96 202.013L353.542 163.604Z" fill="#3F3D56"/>
<path d="M344.276 156.073C350.915 156.073 356.297 150.692 356.297 144.054C356.297 137.415 350.915 132.034 344.276 132.034C337.637 132.034 332.255 137.415 332.255 144.054C332.255 150.692 337.637 156.073 344.276 156.073Z" fill="#FFB7B7"/>
<path d="M355.581 134.445L356.164 133.272L353.232 131.815C353.232 131.815 349.997 126.552 344.144 128.031C338.29 129.51 335.657 130.395 335.657 130.395L332.732 131.867L334.2 133.327L331.567 134.212L333.326 135.087L331.279 136.263L332.381 142.294C332.381 142.294 334.211 137.72 337.73 139.468C341.248 141.216 347.685 138.564 347.685 138.564L353.276 149.385C353.276 149.385 354.43 145.592 356.487 146.603C356.487 146.603 361.741 138.236 355.581 134.445Z" fill="#2F2E41"/>
</svg>
