<svg width="202" height="95" viewBox="0 0 202 95" fill="none" xmlns="http://www.w3.org/2000/svg">
<path d="M36.9372 53.7047C37.2686 53.7047 37.5586 53.8393 37.8071 54.1085L40.1992 56.687C38.3766 58.7995 36.1606 60.4459 33.5511 61.6264C30.9623 62.8069 27.8246 63.3972 24.1381 63.3972C20.9487 63.3972 18.0492 62.8484 15.4397 61.7507C12.8302 60.6323 10.6038 59.0791 8.76056 57.0908C6.91732 55.0819 5.48829 52.6795 4.47348 49.8836C3.45866 47.0877 2.95125 44.0121 2.95125 40.657C2.95125 37.3019 3.47937 34.2264 4.53561 31.4305C5.59185 28.6346 7.07265 26.2321 8.97802 24.2232C10.9041 22.2143 13.203 20.661 15.8746 19.5633C18.5463 18.445 21.4975 17.8858 24.7284 17.8858C27.8971 17.8858 30.693 18.3932 33.1161 19.408C35.5393 20.4228 37.6725 21.8001 39.5157 23.5398L37.5275 26.3046C37.4032 26.5117 37.2375 26.6878 37.0304 26.8327C36.844 26.957 36.5852 27.0191 36.2538 27.0191C35.881 27.0191 35.4254 26.8224 34.8869 26.4289C34.3484 26.0147 33.6443 25.559 32.7744 25.062C31.9046 24.5649 30.8173 24.1197 29.5125 23.7262C28.2078 23.312 26.6027 23.1049 24.6973 23.1049C22.3984 23.1049 20.2963 23.5087 18.391 24.3164C16.4856 25.1034 14.8391 26.2529 13.4515 27.7647C12.0846 29.2766 11.018 31.1198 10.2517 33.2944C9.48543 35.469 9.10228 37.9232 9.10228 40.657C9.10228 43.4322 9.49578 45.9072 10.2828 48.0818C11.0905 50.2564 12.1778 52.0996 13.5447 53.6115C14.9323 55.1026 16.5581 56.2417 18.422 57.0287C20.3067 57.8157 22.3363 58.2092 24.5109 58.2092C25.8364 58.2092 27.0273 58.1367 28.0835 57.9917C29.1604 57.8261 30.1442 57.5775 31.0347 57.2462C31.946 56.9148 32.7848 56.5006 33.5511 56.0035C34.3381 55.4858 35.1147 54.8748 35.881 54.1707C36.2331 53.86 36.5852 53.7047 36.9372 53.7047Z" fill="#FFC300"/>
<path d="M25.9803 57.9259C27.7853 57.9259 29.3727 57.6867 30.7427 57.2083C32.1345 56.7299 33.2979 56.0666 34.233 55.2185C35.1898 54.3487 35.9074 53.3158 36.3858 52.1197C36.8642 50.9237 37.1034 49.6081 37.1034 48.1728C37.1034 45.1936 36.1792 42.8668 34.3308 41.1923C32.5042 39.5179 29.7207 38.6807 25.9803 38.6807H18.4779V57.9259H25.9803ZM25.9803 33.6899C28.9378 33.6899 31.5038 34.0379 33.6784 34.7338C35.8748 35.4079 37.6906 36.3756 39.1258 37.6369C40.5611 38.8981 41.6266 40.4204 42.3225 42.2035C43.0401 43.9867 43.3989 45.9765 43.3989 48.1728C43.3989 50.3474 43.0184 52.3372 42.2573 54.1421C41.4962 55.947 40.3762 57.5019 38.8975 58.8066C37.4405 60.1114 35.6247 61.1335 33.4501 61.8728C31.2972 62.5905 28.8073 62.9493 25.9803 62.9493H18.4779V80.4331H12.1825V33.6899H25.9803Z" fill="white"/>
<path d="M66.6206 53.7083C66.7863 53.7083 66.9313 53.7756 67.0555 53.9102L68.2516 55.1994C67.3403 56.2557 66.2323 57.0789 64.9275 57.6692C63.6331 58.2594 62.0643 58.5546 60.221 58.5546C58.6263 58.5546 57.1766 58.2801 55.8718 57.7313C54.5671 57.1721 53.4539 56.3955 52.5323 55.4014C51.6106 54.3969 50.8961 53.1957 50.3887 51.7977C49.8813 50.3998 49.6276 48.862 49.6276 47.1845C49.6276 45.5069 49.8917 43.9692 50.4198 42.5712C50.9479 41.1732 51.6883 39.972 52.641 38.9676C53.604 37.9631 54.7535 37.1865 56.0893 36.6376C57.4251 36.0784 58.9007 35.7989 60.5162 35.7989C62.1005 35.7989 63.4985 36.0526 64.7101 36.56C65.9216 37.0674 66.9882 37.756 67.9098 38.6258L66.9157 40.0083C66.8536 40.1118 66.7707 40.1998 66.6672 40.2723C66.574 40.3345 66.4446 40.3655 66.2789 40.3655C66.0925 40.3655 65.8647 40.2672 65.5954 40.0704C65.3262 39.8633 64.9741 39.6355 64.5392 39.387C64.1043 39.1384 63.5606 38.9158 62.9082 38.719C62.2559 38.5119 61.4533 38.4084 60.5006 38.4084C59.3512 38.4084 58.3001 38.6103 57.3475 39.0142C56.3948 39.4077 55.5715 39.9824 54.8777 40.7383C54.1943 41.4943 53.661 42.4159 53.2778 43.5032C52.8947 44.5905 52.7031 45.8176 52.7031 47.1845C52.7031 48.5721 52.8999 49.8095 53.2934 50.8968C53.6972 51.9841 54.2409 52.9058 54.9243 53.6617C55.6181 54.4073 56.431 54.9768 57.363 55.3703C58.3053 55.7638 59.3201 55.9606 60.4074 55.9606C61.0702 55.9606 61.6656 55.9243 62.1937 55.8518C62.7322 55.769 63.2241 55.6447 63.6693 55.479C64.125 55.3134 64.5444 55.1063 64.9275 54.8577C65.321 54.5988 65.7093 54.2934 66.0925 53.9413C66.2685 53.786 66.4446 53.7083 66.6206 53.7083ZM77.4223 42.3227C78.5717 42.3227 79.6072 42.5142 80.5289 42.8974C81.4505 43.2805 82.2375 43.8242 82.8899 44.5283C83.5422 45.2325 84.0393 46.0868 84.381 47.0913C84.7331 48.0854 84.9091 49.1986 84.9091 50.4308C84.9091 51.6735 84.7331 52.7918 84.381 53.786C84.0393 54.7801 83.5422 55.6292 82.8899 56.3334C82.2375 57.0375 81.4505 57.5812 80.5289 57.9643C79.6072 58.3371 78.5717 58.5235 77.4223 58.5235C76.2625 58.5235 75.2166 58.3371 74.2846 57.9643C73.363 57.5812 72.576 57.0375 71.9236 56.3334C71.2712 55.6292 70.769 54.7801 70.4169 53.786C70.0752 52.7918 69.9044 51.6735 69.9044 50.4308C69.9044 49.1986 70.0752 48.0854 70.4169 47.0913C70.769 46.0868 71.2712 45.2325 71.9236 44.5283C72.576 43.8242 73.363 43.2805 74.2846 42.8974C75.2166 42.5142 76.2625 42.3227 77.4223 42.3227ZM77.4223 56.3644C78.9756 56.3644 80.1354 55.8467 80.9016 54.8111C81.6679 53.7652 82.0511 52.3103 82.0511 50.4464C82.0511 48.5721 81.6679 47.112 80.9016 46.0661C80.1354 45.0202 78.9756 44.4973 77.4223 44.4973C76.6353 44.4973 75.9466 44.6319 75.3564 44.9011C74.7765 45.1704 74.2898 45.5587 73.8963 46.0661C73.5132 46.5735 73.2232 47.2 73.0265 47.9456C72.8401 48.6808 72.7469 49.5144 72.7469 50.4464C72.7469 52.3103 73.13 53.7652 73.8963 54.8111C74.673 55.8467 75.8483 56.3644 77.4223 56.3644ZM91.0255 44.8545C91.3672 44.4714 91.7296 44.1245 92.1128 43.8138C92.4959 43.5032 92.8998 43.2391 93.3243 43.0217C93.7592 42.7938 94.2149 42.623 94.6912 42.5091C95.1779 42.3848 95.7009 42.3227 96.26 42.3227C97.1195 42.3227 97.8755 42.4676 98.5279 42.7576C99.1906 43.0372 99.7394 43.441 100.174 43.9692C100.62 44.4869 100.956 45.1134 101.184 45.8486C101.412 46.5839 101.526 47.3968 101.526 48.2873V58.306H98.7453V48.2873C98.7453 47.0965 98.4709 46.1748 97.9221 45.5225C97.3836 44.8597 96.5603 44.5283 95.4523 44.5283C94.6343 44.5283 93.868 44.7251 93.1535 45.1186C92.4493 45.5121 91.7969 46.0454 91.1963 46.7185V58.306H88.4159V42.5712H90.078C90.4715 42.5712 90.7148 42.7628 90.808 43.1459L91.0255 44.8545ZM114.903 45.1652C114.779 45.393 114.587 45.5069 114.328 45.5069C114.173 45.5069 113.997 45.45 113.8 45.3361C113.604 45.2221 113.36 45.0979 113.07 44.9633C112.791 44.8183 112.454 44.6889 112.061 44.5749C111.667 44.4507 111.201 44.3885 110.663 44.3885C110.197 44.3885 109.777 44.4507 109.405 44.5749C109.032 44.6889 108.711 44.8494 108.441 45.0565C108.183 45.2636 107.981 45.5069 107.836 45.7865C107.701 46.0557 107.634 46.3509 107.634 46.6719C107.634 47.0757 107.748 47.4123 107.975 47.6815C108.214 47.9508 108.524 48.1838 108.907 48.3805C109.291 48.5773 109.726 48.7533 110.212 48.9086C110.699 49.0536 111.196 49.2141 111.703 49.3901C112.221 49.5558 112.723 49.7422 113.21 49.9493C113.697 50.1564 114.132 50.4153 114.515 50.726C114.898 51.0366 115.203 51.4198 115.431 51.8754C115.669 52.3207 115.789 52.8592 115.789 53.4908C115.789 54.2157 115.659 54.8888 115.4 55.5101C115.141 56.1211 114.758 56.6544 114.251 57.11C113.743 57.5553 113.122 57.9074 112.387 58.1662C111.652 58.4251 110.802 58.5546 109.839 58.5546C108.742 58.5546 107.748 58.3785 106.857 58.0264C105.967 57.664 105.211 57.2032 104.589 56.644L105.242 55.5878C105.325 55.4532 105.423 55.3496 105.537 55.2771C105.651 55.2046 105.796 55.1684 105.972 55.1684C106.158 55.1684 106.355 55.2409 106.562 55.3858C106.769 55.5308 107.018 55.6913 107.308 55.8674C107.608 56.0434 107.97 56.2039 108.395 56.3489C108.819 56.4939 109.348 56.5663 109.979 56.5663C110.518 56.5663 110.989 56.499 111.393 56.3644C111.797 56.2194 112.133 56.0279 112.402 55.7897C112.672 55.5515 112.868 55.2771 112.993 54.9665C113.127 54.6558 113.195 54.3244 113.195 53.9724C113.195 53.5374 113.075 53.1802 112.837 52.9006C112.609 52.6106 112.304 52.3673 111.921 52.1705C111.538 51.9634 111.098 51.7874 110.601 51.6424C110.114 51.4871 109.612 51.3266 109.094 51.1609C108.586 50.9952 108.084 50.8088 107.587 50.6017C107.1 50.3843 106.666 50.115 106.282 49.794C105.899 49.473 105.589 49.0795 105.35 48.6135C105.123 48.1372 105.009 47.5624 105.009 46.8893C105.009 46.2887 105.133 45.714 105.381 45.1652C105.63 44.606 105.992 44.1193 106.469 43.7051C106.945 43.2805 107.53 42.944 108.224 42.6955C108.918 42.4469 109.71 42.3227 110.601 42.3227C111.636 42.3227 112.563 42.4884 113.381 42.8197C114.209 43.1407 114.924 43.586 115.524 44.1556L114.903 45.1652ZM132.117 42.5712V58.306H130.471C130.077 58.306 129.829 58.1145 129.725 57.7313L129.508 56.0382C128.824 56.7942 128.058 57.4051 127.209 57.8711C126.36 58.3267 125.386 58.5546 124.289 58.5546C123.429 58.5546 122.668 58.4148 122.005 58.1352C121.353 57.8452 120.804 57.4414 120.359 56.9236C119.914 56.4058 119.577 55.7793 119.349 55.0441C119.132 54.3089 119.023 53.496 119.023 52.6055V42.5712H121.788V52.6055C121.788 53.7963 122.057 54.7179 122.596 55.3703C123.144 56.0227 123.978 56.3489 125.096 56.3489C125.914 56.3489 126.676 56.1573 127.38 55.7742C128.094 55.3807 128.752 54.8422 129.352 54.1587V42.5712H132.117ZM139.359 35.4261V58.306H136.594V35.4261H139.359ZM148.674 58.5546C147.431 58.5546 146.473 58.2077 145.8 57.5139C145.137 56.82 144.806 55.8208 144.806 54.516V44.8856H142.911C142.745 44.8856 142.605 44.839 142.492 44.7458C142.378 44.6423 142.321 44.4869 142.321 44.2798V43.177L144.899 42.8508L145.536 37.989C145.567 37.8337 145.634 37.7094 145.738 37.6162C145.852 37.5127 145.997 37.4609 146.173 37.4609H147.571V42.8819H152.122V44.8856H147.571V54.3296C147.571 54.9923 147.731 55.4842 148.052 55.8052C148.373 56.1262 148.788 56.2868 149.295 56.2868C149.585 56.2868 149.833 56.2505 150.041 56.178C150.258 56.0952 150.444 56.0072 150.6 55.914C150.755 55.8208 150.884 55.7379 150.988 55.6654C151.102 55.5826 151.2 55.5412 151.283 55.5412C151.428 55.5412 151.558 55.6292 151.671 55.8052L152.479 57.1255C152.003 57.5708 151.428 57.9229 150.755 58.1818C150.082 58.4303 149.388 58.5546 148.674 58.5546ZM165.837 45.3671C165.754 45.481 165.671 45.5691 165.588 45.6312C165.505 45.6933 165.391 45.7244 165.246 45.7244C165.091 45.7244 164.92 45.6622 164.734 45.538C164.547 45.4034 164.314 45.2584 164.035 45.1031C163.765 44.9477 163.429 44.8079 163.025 44.6837C162.632 44.5491 162.145 44.4817 161.565 44.4817C160.788 44.4817 160.105 44.6215 159.515 44.9011C158.924 45.1704 158.427 45.5639 158.023 46.0816C157.63 46.5994 157.33 47.2259 157.123 47.9611C156.926 48.6963 156.827 49.5196 156.827 50.4308C156.827 51.3835 156.936 52.2327 157.154 52.9782C157.371 53.7135 157.677 54.3348 158.07 54.8422C158.474 55.3392 158.955 55.7224 159.515 55.9916C160.084 56.2505 160.721 56.38 161.425 56.38C162.098 56.38 162.652 56.3023 163.087 56.147C163.522 55.9813 163.879 55.8001 164.159 55.6033C164.449 55.4066 164.687 55.2305 164.873 55.0752C165.07 54.9095 165.262 54.8267 165.448 54.8267C165.676 54.8267 165.852 54.9147 165.976 55.0907L166.753 56.1004C166.411 56.5249 166.023 56.8874 165.588 57.1877C165.153 57.488 164.682 57.7417 164.175 57.9488C163.677 58.1455 163.155 58.2905 162.606 58.3837C162.057 58.4769 161.498 58.5235 160.928 58.5235C159.944 58.5235 159.028 58.3423 158.179 57.9798C157.34 57.6174 156.61 57.0945 155.989 56.411C155.367 55.7172 154.881 54.8681 154.529 53.8636C154.176 52.8592 154 51.7149 154 50.4308C154 49.2607 154.161 48.1786 154.482 47.1845C154.813 46.1904 155.29 45.3361 155.911 44.6215C156.543 43.8967 157.314 43.3323 158.225 42.9285C159.147 42.5246 160.203 42.3227 161.394 42.3227C162.502 42.3227 163.476 42.5039 164.314 42.8663C165.163 43.2184 165.914 43.7206 166.567 44.373L165.837 45.3671ZM179.979 48.7222C179.979 48.0802 179.886 47.4951 179.7 46.967C179.524 46.4285 179.26 45.9677 178.907 45.5846C178.566 45.1911 178.146 44.8908 177.649 44.6837C177.152 44.4662 176.588 44.3575 175.956 44.3575C174.631 44.3575 173.58 44.7458 172.803 45.5225C172.037 46.2887 171.56 47.3553 171.374 48.7222H179.979ZM182.216 56.1004C181.874 56.5146 181.465 56.877 180.989 57.1877C180.513 57.488 180 57.7365 179.451 57.9332C178.913 58.13 178.353 58.275 177.774 58.3682C177.194 58.4717 176.619 58.5235 176.049 58.5235C174.962 58.5235 173.958 58.3423 173.036 57.9798C172.125 57.607 171.333 57.0686 170.659 56.3644C169.997 55.6499 169.479 54.7697 169.106 53.7238C168.733 52.6779 168.547 51.4767 168.547 50.1202C168.547 49.0225 168.713 47.9974 169.044 47.0447C169.386 46.092 169.872 45.2687 170.504 44.5749C171.136 43.8708 171.907 43.322 172.819 42.9285C173.73 42.5246 174.755 42.3227 175.894 42.3227C176.836 42.3227 177.706 42.4832 178.504 42.8042C179.311 43.1149 180.005 43.5705 180.585 44.1711C181.175 44.7613 181.636 45.4966 181.967 46.3768C182.299 47.2466 182.464 48.2407 182.464 49.3591C182.464 49.794 182.418 50.0839 182.325 50.2289C182.231 50.3739 182.055 50.4464 181.797 50.4464H171.281C171.312 51.4405 171.446 52.3052 171.685 53.0404C171.933 53.7756 172.275 54.3917 172.71 54.8888C173.145 55.3755 173.663 55.7431 174.263 55.9916C174.864 56.2298 175.537 56.3489 176.282 56.3489C176.976 56.3489 177.572 56.2712 178.069 56.1159C178.576 55.9502 179.011 55.7742 179.373 55.5878C179.736 55.4014 180.036 55.2305 180.274 55.0752C180.523 54.9095 180.735 54.8267 180.911 54.8267C181.139 54.8267 181.315 54.9147 181.439 55.0907L182.216 56.1004ZM188.641 54.516C189.148 55.1994 189.702 55.681 190.303 55.9606C190.904 56.2402 191.577 56.38 192.322 56.38C193.793 56.38 194.921 55.857 195.708 54.8111C196.495 53.7652 196.889 52.2741 196.889 50.3377C196.889 49.3125 196.796 48.4323 196.609 47.6971C196.433 46.9618 196.174 46.3612 195.833 45.8952C195.491 45.4189 195.072 45.072 194.575 44.8545C194.078 44.6371 193.513 44.5283 192.881 44.5283C191.981 44.5283 191.188 44.7355 190.505 45.1497C189.832 45.5639 189.211 46.1489 188.641 46.9049V54.516ZM188.501 45.0099C189.164 44.1918 189.93 43.5342 190.8 43.0372C191.67 42.5401 192.664 42.2916 193.782 42.2916C194.694 42.2916 195.517 42.4676 196.252 42.8197C196.987 43.1615 197.614 43.674 198.132 44.3575C198.649 45.0306 199.048 45.8694 199.328 46.8738C199.607 47.8783 199.747 49.0329 199.747 50.3377C199.747 51.4974 199.592 52.5796 199.281 53.584C198.97 54.5781 198.52 55.4428 197.93 56.178C197.35 56.9029 196.635 57.4776 195.786 57.9022C194.947 58.3164 194 58.5235 192.944 58.5235C191.981 58.5235 191.152 58.363 190.458 58.042C189.775 57.7106 189.169 57.255 188.641 56.6751V63.6338H185.861V42.5712H187.523C187.916 42.5712 188.159 42.7628 188.253 43.1459L188.501 45.0099Z" fill="white"/>
</svg>
